<svg width="680" viewBox="0 0 680 600" xmlns="http://www.w3.org/2000/svg" style="background:#fff;font-family:-apple-system,'Segoe UI',Helvetica,Arial,sans-serif">
<defs>
  <marker id="arr" viewBox="0 0 10 10" refX="8" refY="5" markerWidth="6" markerHeight="6" orient="auto-start-reverse">
    <path d="M2 1L8 5L2 9" fill="none" stroke="context-stroke" stroke-width="1.5" stroke-linecap="round" stroke-linejoin="round"/>
  </marker>
  <style>
    .th{font-size:13px;font-weight:600}
    .ts{font-size:11px;font-weight:400}
  </style>
</defs>

<text class="th" x="340" y="28" text-anchor="middle" fill="#2C2C2A">Fabric deployment pipeline · stage flow</text>

<!-- Lane backgrounds -->
<rect x="16" y="44"  width="648" height="84" rx="8" fill="#F1EFE8" stroke="#B4B2A9" stroke-width="0.5"/>
<rect x="16" y="136" width="648" height="84" rx="8" fill="#E1F5EE" stroke="#5DCAA5" stroke-width="0.5"/>
<rect x="16" y="228" width="648" height="84" rx="8" fill="#FAEEDA" stroke="#BA7517" stroke-width="1"/>
<rect x="16" y="320" width="648" height="84" rx="8" fill="#EEEDFE" stroke="#AFA9EC" stroke-width="0.5"/>
<rect x="16" y="412" width="648" height="84" rx="8" fill="#FAEEDA" stroke="#BA7517" stroke-width="1"/>
<rect x="16" y="504" width="648" height="84" rx="8" fill="#FAECE7" stroke="#F0997B" stroke-width="0.5"/>

<!-- Lane labels -->
<text class="ts" x="28" y="57"  fill="#888780">Developer</text>
<text class="ts" x="28" y="149" fill="#085041">Dev environment</text>
<text class="ts" x="28" y="241" fill="#633806">Approval gate · Test</text>
<text class="ts" x="28" y="333" fill="#3C3489">Test environment</text>
<text class="ts" x="28" y="425" fill="#633806">Approval gate · Prod</text>
<text class="ts" x="28" y="517" fill="#712B13">Production</text>

<!-- ROW 1: DEVELOPER -->
<rect x="32" y="60" width="186" height="52" rx="6" fill="#F1EFE8" stroke="#888780" stroke-width="0.5"/>
<text class="th" x="125" y="80" text-anchor="middle" dominant-baseline="central" fill="#2C2C2A">Branch from main</text>
<text class="ts" x="125" y="99" text-anchor="middle" dominant-baseline="central" fill="#5F5E5A">feature/sales-pipeline</text>

<line x1="218" y1="86" x2="236" y2="86" stroke="#888780" stroke-width="1.2" marker-end="url(#arr)"/>

<rect x="238" y="60" width="160" height="52" rx="6" fill="#F1EFE8" stroke="#888780" stroke-width="0.5"/>
<text class="th" x="318" y="80" text-anchor="middle" dominant-baseline="central" fill="#2C2C2A">Push to branch</text>
<text class="ts" x="318" y="99" text-anchor="middle" dominant-baseline="central" fill="#5F5E5A">triggers pipeline</text>

<line x1="398" y1="86" x2="416" y2="86" stroke="#888780" stroke-width="1.2" marker-end="url(#arr)"/>

<rect x="418" y="60" width="210" height="52" rx="6" fill="#E1F5EE" stroke="#1D9E75" stroke-width="0.5"/>
<text class="th" x="523" y="80" text-anchor="middle" dominant-baseline="central" fill="#085041">Validate SPN</text>
<text class="ts" x="523" y="99" text-anchor="middle" dominant-baseline="central" fill="#0F6E56">spn_evaluator.sh · stage 0</text>

<line x1="523" y1="112" x2="523" y2="136" stroke="#1D9E75" stroke-width="1.2" marker-end="url(#arr)"/>

<!-- ROW 2: DEV ENV -->
<rect x="32" y="152" width="186" height="52" rx="6" fill="#E1F5EE" stroke="#1D9E75" stroke-width="0.5"/>
<text class="th" x="125" y="172" text-anchor="middle" dominant-baseline="central" fill="#085041">Create workspace</text>
<text class="ts" x="125" y="191" text-anchor="middle" dominant-baseline="central" fill="#0F6E56">feat-sales-pipeline · stage 1</text>

<line x1="218" y1="178" x2="236" y2="178" stroke="#1D9E75" stroke-width="1.2" marker-end="url(#arr)"/>

<rect x="238" y="152" width="186" height="52" rx="6" fill="#E1F5EE" stroke="#1D9E75" stroke-width="0.5"/>
<text class="th" x="331" y="172" text-anchor="middle" dominant-baseline="central" fill="#085041">Inject dev vars</text>
<text class="ts" x="331" y="191" text-anchor="middle" dominant-baseline="central" fill="#0F6E56">ENV_VAR_DEV_* · stage 2</text>

<line x1="424" y1="178" x2="442" y2="178" stroke="#1D9E75" stroke-width="1.2" marker-end="url(#arr)"/>

<rect x="444" y="152" width="196" height="52" rx="6" fill="#E1F5EE" stroke="#1D9E75" stroke-width="0.5"/>
<text class="th" x="542" y="172" text-anchor="middle" dominant-baseline="central" fill="#085041">Deploy to dev</text>
<text class="ts" x="542" y="191" text-anchor="middle" dominant-baseline="central" fill="#0F6E56">Git sync · stage 3</text>

<line x1="542" y1="204" x2="542" y2="228" stroke="#BA7517" stroke-width="1.2" marker-end="url(#arr)"/>

<!-- ROW 3: GATE TEST -->
<text class="ts" x="28" y="264" fill="#854F0B">Manual</text>
<text class="ts" x="28" y="279" fill="#854F0B">gate</text>
<polygon points="162,270 174,262 186,270 174,278" fill="#EF9F27" stroke="#854F0B" stroke-width="0.8"/>
<rect x="188" y="244" width="300" height="52" rx="6" fill="#FAEEDA" stroke="#BA7517" stroke-width="1"/>
<text class="th" x="338" y="264" text-anchor="middle" dominant-baseline="central" fill="#412402">Awaiting Test approval</text>
<text class="ts" x="338" y="283" text-anchor="middle" dominant-baseline="central" fill="#633806">GitHub Issue · human review · stage 4</text>
<path d="M488 270 L610 270 L610 362 L240 362" fill="none" stroke="#7F77DD" stroke-width="1.4" stroke-dasharray="5 3" marker-end="url(#arr)"/>
<text class="ts" x="616" y="316" fill="#534AB7">approved</text>

<!-- ROW 4: TEST ENV -->
<rect x="32" y="336" width="186" height="52" rx="6" fill="#EEEDFE" stroke="#7F77DD" stroke-width="0.5"/>
<text class="th" x="125" y="356" text-anchor="middle" dominant-baseline="central" fill="#3C3489">Inject test vars</text>
<text class="ts" x="125" y="375" text-anchor="middle" dominant-baseline="central" fill="#534AB7">ENV_VAR_TEST_* · stage 5</text>

<line x1="218" y1="362" x2="236" y2="362" stroke="#7F77DD" stroke-width="1.2" marker-end="url(#arr)"/>

<rect x="238" y="336" width="186" height="52" rx="6" fill="#EEEDFE" stroke="#7F77DD" stroke-width="0.5"/>
<text class="th" x="331" y="356" text-anchor="middle" dominant-baseline="central" fill="#3C3489">Deploy to test</text>
<text class="ts" x="331" y="375" text-anchor="middle" dominant-baseline="central" fill="#534AB7">Git sync · stage 6</text>

<line x1="424" y1="362" x2="442" y2="362" stroke="#7F77DD" stroke-width="1.2" marker-end="url(#arr)"/>

<rect x="444" y="336" width="210" height="52" rx="6" fill="#EEEDFE" stroke="#7F77DD" stroke-width="0.5"/>
<text class="th" x="549" y="356" text-anchor="middle" dominant-baseline="central" fill="#3C3489">Create PR: test → main</text>
<text class="ts" x="549" y="375" text-anchor="middle" dominant-baseline="central" fill="#534AB7">squash · no auto-merge · stage 7</text>

<line x1="549" y1="388" x2="549" y2="412" stroke="#BA7517" stroke-width="1.2" marker-end="url(#arr)"/>

<!-- ROW 5: GATE PROD -->
<text class="ts" x="28" y="448" fill="#854F0B">Manual</text>
<text class="ts" x="28" y="463" fill="#854F0B">gate</text>
<polygon points="162,454 174,446 186,454 174,462" fill="#EF9F27" stroke="#854F0B" stroke-width="0.8"/>
<rect x="188" y="428" width="300" height="52" rx="6" fill="#FAEEDA" stroke="#BA7517" stroke-width="1"/>
<text class="th" x="338" y="448" text-anchor="middle" dominant-baseline="central" fill="#412402">PR review &amp; merge to main</text>
<text class="ts" x="338" y="467" text-anchor="middle" dominant-baseline="central" fill="#633806">team review · squash merge · no auto-merge</text>
<path d="M488 454 L610 454 L610 546 L240 546" fill="none" stroke="#D85A30" stroke-width="1.4" stroke-dasharray="5 3" marker-end="url(#arr)"/>
<text class="ts" x="616" y="504" fill="#712B13">merged</text>

<!-- ROW 6: PRODUCTION -->
<rect x="32" y="520" width="186" height="52" rx="6" fill="#FAECE7" stroke="#D85A30" stroke-width="0.5"/>
<text class="th" x="125" y="540" text-anchor="middle" dominant-baseline="central" fill="#712B13">Inject prod vars</text>
<text class="ts" x="125" y="559" text-anchor="middle" dominant-baseline="central" fill="#993C1D">ENV_VAR_PROD_* · stage 8</text>

<line x1="218" y1="546" x2="236" y2="546" stroke="#D85A30" stroke-width="1.2" marker-end="url(#arr)"/>

<rect x="238" y="520" width="186" height="52" rx="6" fill="#FAECE7" stroke="#D85A30" stroke-width="0.5"/>
<text class="th" x="331" y="540" text-anchor="middle" dominant-baseline="central" fill="#712B13">Deploy to prod</text>
<text class="ts" x="331" y="559" text-anchor="middle" dominant-baseline="central" fill="#993C1D">Git sync · stage 9</text>

<line x1="424" y1="546" x2="442" y2="546" stroke="#D85A30" stroke-width="1.2" marker-end="url(#arr)"/>

<rect x="444" y="520" width="196" height="52" rx="6" fill="#FAECE7" stroke="#D85A30" stroke-width="0.5"/>
<text class="th" x="542" y="540" text-anchor="middle" dominant-baseline="central" fill="#712B13">Production live</text>
<text class="ts" x="542" y="559" text-anchor="middle" dominant-baseline="central" fill="#993C1D">main synced to workspace</text>

</svg>
